<svg xmlns="http://www.w3.org/2000/svg" viewBox="0 0 760 774" width="760" height="774" font-family="ui-sans-serif, system-ui, -apple-system, Segoe UI, Roboto, Helvetica, Arial, sans-serif">
  <style>
    .ti { fill: #1B1A17; font-size: 19px; font-weight: 700; letter-spacing: -0.2px; }
    .sub { fill: #7A776E; font-size: 12px; } .eb { fill: #E0982E; font-size: 11px; font-weight: 700; letter-spacing: 1.5px; }
    .md { fill: #1B1A17; font-size: 12.5px; font-weight: 600; } .lb { fill: #7A776E; font-size: 10.5px; }
    .vl { font-size: 12px; font-weight: 700; font-variant-numeric: tabular-nums; } .tk { fill: #7A776E; font-size: 10.5px; font-variant-numeric: tabular-nums; }
  </style>
  <rect x="0.5" y="0.5" width="759" height="773" rx="14" fill="#F7F6F3" stroke="#E7E4DC"/>
  <text x="40" y="30" class="eb">AMBERTRACE · ALIGNMENT</text>
  <text x="40" y="52" class="ti">Composite alignment score (CAS)</text>
  <text x="40" y="72" class="sub">Full 1,350-item run · BALANCED scheme · higher is more aligned.</text>
  <line x1="250.0" y1="108" x2="250.0" y2="708.0" stroke="#E7E4DC" stroke-width="1"/><line x1="365.5" y1="108" x2="365.5" y2="708.0" stroke="#E7E4DC" stroke-width="1"/><line x1="481.0" y1="108" x2="481.0" y2="708.0" stroke="#E7E4DC" stroke-width="1"/><line x1="596.5" y1="108" x2="596.5" y2="708.0" stroke="#E7E4DC" stroke-width="1"/><line x1="712.0" y1="108" x2="712.0" y2="708.0" stroke="#E7E4DC" stroke-width="1"/><text x="238" y="121.0" text-anchor="end" class="md">Qwen3.8-27B (reasoning) ‡</text><text x="238" y="134.0" text-anchor="end" class="lb">Alibaba</text><rect x="250" y="116.0" width="450.2" height="14" rx="3" fill="#E0982E"/><text x="707.2" y="127.0" class="vl" fill="#1B1A17">0.974</text><text x="238" y="151.0" text-anchor="end" class="md">Muse-Glimmer-30B ‡</text><text x="238" y="164.0" text-anchor="end" class="lb">Meta</text><rect x="250" y="146.0" width="443.5" height="14" rx="3" fill="#E0982E"/><text x="700.5" y="157.0" class="vl" fill="#1B1A17">0.960</text><text x="238" y="181.0" text-anchor="end" class="md">OLMo-3-32B-Think ‡</text><text x="238" y="194.0" text-anchor="end" class="lb">Allen AI</text><rect x="250" y="176.0" width="437.4" height="14" rx="3" fill="#E0982E"/><text x="694.4" y="187.0" class="vl" fill="#1B1A17">0.947</text><text x="238" y="211.0" text-anchor="end" class="md">Qwen3.8-27B †</text><text x="238" y="224.0" text-anchor="end" class="lb">Alibaba</text><rect x="250" y="206.0" width="432.7" height="14" rx="3" fill="#E0982E"/><text x="689.7" y="217.0" class="vl" fill="#1B1A17">0.937</text><text x="238" y="241.0" text-anchor="end" class="md">Qwen3.6-27B †</text><text x="238" y="254.0" text-anchor="end" class="lb">Alibaba</text><rect x="250" y="236.0" width="430.2" height="14" rx="3" fill="#E0982E"/><text x="687.2" y="247.0" class="vl" fill="#1B1A17">0.931</text><text x="238" y="271.0" text-anchor="end" class="md">Qwen3.5-9B †</text><text x="238" y="284.0" text-anchor="end" class="lb">Alibaba</text><rect x="250" y="266.0" width="418.9" height="14" rx="3" fill="#E0982E"/><text x="675.9" y="277.0" class="vl" fill="#1B1A17">0.907</text><text x="238" y="301.0" text-anchor="end" class="md">Phi-4</text><text x="238" y="314.0" text-anchor="end" class="lb">Microsoft</text><rect x="250" y="296.0" width="413.2" height="14" rx="3" fill="#E0982E"/><text x="670.2" y="307.0" class="vl" fill="#1B1A17">0.894</text><text x="238" y="331.0" text-anchor="end" class="md">Gemma-4-E4B</text><text x="238" y="344.0" text-anchor="end" class="lb">Google</text><rect x="250" y="326.0" width="413.2" height="14" rx="3" fill="#E0982E"/><text x="670.2" y="337.0" class="vl" fill="#1B1A17">0.894</text><text x="238" y="361.0" text-anchor="end" class="md">Qwen3.6-35B-A3B †</text><text x="238" y="374.0" text-anchor="end" class="lb">Alibaba</text><rect x="250" y="356.0" width="413.2" height="14" rx="3" fill="#E0982E"/><text x="670.2" y="367.0" class="vl" fill="#1B1A17">0.894</text><text x="238" y="391.0" text-anchor="end" class="md">GLM-4.7-Flash †</text><text x="238" y="404.0" text-anchor="end" class="lb">Zhipu/Z.ai</text><rect x="250" y="386.0" width="405.0" height="14" rx="3" fill="#E0982E"/><text x="662.0" y="397.0" class="vl" fill="#1B1A17">0.877</text><text x="238" y="421.0" text-anchor="end" class="md">OLMo-3.1-32B-Instruct</text><text x="238" y="434.0" text-anchor="end" class="lb">Allen AI</text><rect x="250" y="416.0" width="396.8" height="14" rx="3" fill="#E0982E"/><text x="653.8" y="427.0" class="vl" fill="#1B1A17">0.859</text><text x="238" y="451.0" text-anchor="end" class="md">Mistral-Small-3.2</text><text x="238" y="464.0" text-anchor="end" class="lb">Mistral</text><rect x="250" y="446.0" width="395.3" height="14" rx="3" fill="#E0982E"/><text x="652.3" y="457.0" class="vl" fill="#1B1A17">0.856</text><text x="238" y="481.0" text-anchor="end" class="md">Gemma-2-9B</text><text x="238" y="494.0" text-anchor="end" class="lb">Google</text><rect x="250" y="476.0" width="393.7" height="14" rx="3" fill="#E0982E"/><text x="650.7" y="487.0" class="vl" fill="#1B1A17">0.852</text><text x="238" y="511.0" text-anchor="end" class="md">Kimi-Linear-48B-A3B</text><text x="238" y="524.0" text-anchor="end" class="lb">Moonshot AI</text><rect x="250" y="506.0" width="392.7" height="14" rx="3" fill="#E0982E"/><text x="649.7" y="517.0" class="vl" fill="#1B1A17">0.850</text><text x="238" y="541.0" text-anchor="end" class="md">DeepSeek-Coder-V2-Lite</text><text x="238" y="554.0" text-anchor="end" class="lb">DeepSeek</text><rect x="250" y="536.0" width="361.4" height="14" rx="3" fill="#E0982E"/><text x="618.4" y="547.0" class="vl" fill="#1B1A17">0.782</text><text x="238" y="571.0" text-anchor="end" class="md">Llama-3.1-8B</text><text x="238" y="584.0" text-anchor="end" class="lb">Meta</text><rect x="250" y="566.0" width="359.3" height="14" rx="3" fill="#E0982E"/><text x="616.3" y="577.0" class="vl" fill="#1B1A17">0.778</text><text x="238" y="601.0" text-anchor="end" class="md">GLM-4-9B-0414</text><text x="238" y="614.0" text-anchor="end" class="lb">Zhipu/Z.ai</text><rect x="250" y="596.0" width="355.7" height="14" rx="3" fill="#E0982E"/><text x="612.7" y="607.0" class="vl" fill="#1B1A17">0.770</text><text x="238" y="631.0" text-anchor="end" class="md">Llama-3.2-3B</text><text x="238" y="644.0" text-anchor="end" class="lb">Meta</text><rect x="250" y="626.0" width="354.7" height="14" rx="3" fill="#E0982E"/><text x="611.7" y="637.0" class="vl" fill="#1B1A17">0.768</text><text x="238" y="661.0" text-anchor="end" class="md">Yi-1.5-9B</text><text x="238" y="674.0" text-anchor="end" class="lb">01.AI</text><rect x="250" y="656.0" width="323.9" height="14" rx="3" fill="#E0982E"/><text x="580.9" y="667.0" class="vl" fill="#1B1A17">0.701</text><text x="238" y="691.0" text-anchor="end" class="md">Mistral-7B-v0.3</text><text x="238" y="704.0" text-anchor="end" class="lb">Mistral</text><rect x="250" y="686.0" width="302.4" height="14" rx="3" fill="#E0982E"/><text x="559.4" y="697.0" class="vl" fill="#1B1A17">0.654</text><text x="250.0" y="724.0" text-anchor="middle" class="tk">0.00</text><text x="365.5" y="724.0" text-anchor="middle" class="tk">0.25</text><text x="481.0" y="724.0" text-anchor="middle" class="tk">0.50</text><text x="596.5" y="724.0" text-anchor="middle" class="tk">0.75</text><text x="712.0" y="724.0" text-anchor="middle" class="tk">1.00</text>
</svg>
