<svg xmlns="http://www.w3.org/2000/svg" viewBox="0 0 760 774" width="760" height="774" font-family="ui-sans-serif, system-ui, -apple-system, Segoe UI, Roboto, Helvetica, Arial, sans-serif">
  <style>
    .ti { fill: #1B1A17; font-size: 19px; font-weight: 700; letter-spacing: -0.2px; }
    .sub { fill: #7A776E; font-size: 12px; } .eb { fill: #E0982E; font-size: 11px; font-weight: 700; letter-spacing: 1.5px; }
    .md { fill: #1B1A17; font-size: 12.5px; font-weight: 600; } .lb { fill: #7A776E; font-size: 10.5px; }
    .vl { font-size: 12px; font-weight: 700; font-variant-numeric: tabular-nums; } .tk { fill: #7A776E; font-size: 10.5px; font-variant-numeric: tabular-nums; }
    .cell { font-size: 11px; font-weight: 700; font-variant-numeric: tabular-nums; } .col { fill: #7A776E; font-size: 10.5px; }
  </style>
  <rect x="0.5" y="0.5" width="759" height="773" rx="14" fill="#F7F6F3" stroke="#E7E4DC"/>
  <text x="40" y="30" class="eb">AMBERTRACE · ALIGNMENT</text>
  <text x="40" y="52" class="ti">Fail-open on safety-critical decisions</text>
  <text x="40" y="72" class="sub">Rate of choosing an unsafe permissive action where the policy is restrictive · lower is safer.</text>
  <line x1="250.0" y1="108" x2="250.0" y2="708.0" stroke="#E7E4DC" stroke-width="1"/><text x="250.0" y="724.0" text-anchor="middle" class="tk">0%</text><line x1="481.0" y1="108" x2="481.0" y2="708.0" stroke="#E7E4DC" stroke-width="1"/><text x="481.0" y="724.0" text-anchor="middle" class="tk">20%</text><line x1="712.0" y1="108" x2="712.0" y2="708.0" stroke="#E7E4DC" stroke-width="1"/><text x="712.0" y="724.0" text-anchor="middle" class="tk">40%</text><text x="238" y="121.0" text-anchor="end" class="md">Yi-1.5-9B</text><text x="238" y="134.0" text-anchor="end" class="lb">01.AI</text><rect x="250.0" y="116.0" width="436.2" height="14" rx="3" fill="#E0982E"/><text x="693.2" y="127.0" class="vl" fill="#1B1A17">38%</text><text x="238" y="151.0" text-anchor="end" class="md">Mistral-7B-v0.3</text><text x="238" y="164.0" text-anchor="end" class="lb">Mistral</text><rect x="250.0" y="146.0" width="424.0" height="14" rx="3" fill="#E0982E"/><text x="681.0" y="157.0" class="vl" fill="#1B1A17">37%</text><text x="238" y="181.0" text-anchor="end" class="md">GLM-4-9B-0414</text><text x="238" y="194.0" text-anchor="end" class="lb">Zhipu/Z.ai</text><rect x="250.0" y="176.0" width="343.3" height="14" rx="3" fill="#E0982E"/><text x="600.3" y="187.0" class="vl" fill="#1B1A17">30%</text><text x="238" y="211.0" text-anchor="end" class="md">Llama-3.1-8B</text><text x="238" y="224.0" text-anchor="end" class="lb">Meta</text><rect x="250.0" y="206.0" width="306.9" height="14" rx="3" fill="#E0982E"/><text x="563.9" y="217.0" class="vl" fill="#1B1A17">27%</text><text x="238" y="241.0" text-anchor="end" class="md">DeepSeek-Coder-V2-Lite</text><text x="238" y="254.0" text-anchor="end" class="lb">DeepSeek</text><rect x="250.0" y="236.0" width="306.9" height="14" rx="3" fill="#E0982E"/><text x="563.9" y="247.0" class="vl" fill="#1B1A17">27%</text><text x="238" y="271.0" text-anchor="end" class="md">Llama-3.2-3B</text><text x="238" y="284.0" text-anchor="end" class="lb">Meta</text><rect x="250.0" y="266.0" width="234.2" height="14" rx="3" fill="#E0982E"/><text x="491.2" y="277.0" class="vl" fill="#1B1A17">20%</text><text x="238" y="301.0" text-anchor="end" class="md">Kimi-Linear-48B-A3B</text><text x="238" y="314.0" text-anchor="end" class="lb">Moonshot AI</text><rect x="250.0" y="296.0" width="214.0" height="14" rx="3" fill="#E0982E"/><text x="471.0" y="307.0" class="vl" fill="#1B1A17">19%</text><text x="238" y="331.0" text-anchor="end" class="md">Mistral-Small-3.2</text><text x="238" y="344.0" text-anchor="end" class="lb">Mistral</text><rect x="250.0" y="326.0" width="193.8" height="14" rx="3" fill="#E0982E"/><text x="450.8" y="337.0" class="vl" fill="#1B1A17">17%</text><text x="238" y="361.0" text-anchor="end" class="md">Gemma-2-9B</text><text x="238" y="374.0" text-anchor="end" class="lb">Google</text><rect x="250.0" y="356.0" width="157.5" height="14" rx="3" fill="#E0982E"/><text x="414.5" y="367.0" class="vl" fill="#1B1A17">14%</text><text x="238" y="391.0" text-anchor="end" class="md">Qwen3.6-35B-A3B †</text><text x="238" y="404.0" text-anchor="end" class="lb">Alibaba</text><rect x="250.0" y="386.0" width="129.2" height="14" rx="3" fill="#E0982E"/><text x="386.2" y="397.0" class="vl" fill="#1B1A17">11%</text><text x="238" y="421.0" text-anchor="end" class="md">GLM-4.7-Flash †</text><text x="238" y="434.0" text-anchor="end" class="lb">Zhipu/Z.ai</text><rect x="250.0" y="416.0" width="121.2" height="14" rx="3" fill="#E0982E"/><text x="378.2" y="427.0" class="vl" fill="#1B1A17">10%</text><text x="238" y="451.0" text-anchor="end" class="md">OLMo-3.1-32B-Instruct</text><text x="238" y="464.0" text-anchor="end" class="lb">Allen AI</text><rect x="250.0" y="446.0" width="113.1" height="14" rx="3" fill="#E0982E"/><text x="370.1" y="457.0" class="vl" fill="#1B1A17">10%</text><text x="238" y="481.0" text-anchor="end" class="md">Phi-4</text><text x="238" y="494.0" text-anchor="end" class="lb">Microsoft</text><rect x="250.0" y="476.0" width="109.0" height="14" rx="3" fill="#E0982E"/><text x="366.0" y="487.0" class="vl" fill="#1B1A17">9%</text><text x="238" y="511.0" text-anchor="end" class="md">Gemma-4-E4B</text><text x="238" y="524.0" text-anchor="end" class="lb">Google</text><rect x="250.0" y="506.0" width="96.9" height="14" rx="3" fill="#E0982E"/><text x="353.9" y="517.0" class="vl" fill="#1B1A17">8%</text><text x="238" y="541.0" text-anchor="end" class="md">Qwen3.6-27B †</text><text x="238" y="554.0" text-anchor="end" class="lb">Alibaba</text><rect x="250.0" y="536.0" width="72.7" height="14" rx="3" fill="#E0982E"/><text x="329.7" y="547.0" class="vl" fill="#1B1A17">6%</text><text x="238" y="571.0" text-anchor="end" class="md">Qwen3.8-27B †</text><text x="238" y="584.0" text-anchor="end" class="lb">Alibaba</text><rect x="250.0" y="566.0" width="72.7" height="14" rx="3" fill="#E0982E"/><text x="329.7" y="577.0" class="vl" fill="#1B1A17">6%</text><text x="238" y="601.0" text-anchor="end" class="md">Qwen3.5-9B †</text><text x="238" y="614.0" text-anchor="end" class="lb">Alibaba</text><rect x="250.0" y="596.0" width="60.6" height="14" rx="3" fill="#E0982E"/><text x="317.6" y="607.0" class="vl" fill="#1B1A17">5%</text><text x="238" y="631.0" text-anchor="end" class="md">OLMo-3-32B-Think ‡</text><text x="238" y="644.0" text-anchor="end" class="lb">Allen AI</text><rect x="250.0" y="626.0" width="37.9" height="14" rx="3" fill="#E0982E"/><text x="294.9" y="637.0" class="vl" fill="#1B1A17">3%</text><text x="238" y="661.0" text-anchor="end" class="md">Muse-Glimmer-30B ‡</text><text x="238" y="674.0" text-anchor="end" class="lb">Meta</text><rect x="250.0" y="656.0" width="36.3" height="14" rx="3" fill="#E0982E"/><text x="293.3" y="667.0" class="vl" fill="#1B1A17">3%</text><text x="238" y="691.0" text-anchor="end" class="md">Qwen3.8-27B (reasoning) ‡</text><text x="238" y="704.0" text-anchor="end" class="lb">Alibaba</text><rect x="250.0" y="686.0" width="0.0" height="14" rx="3" fill="#E0982E"/><text x="257.0" y="697.0" class="vl" fill="#1B1A17">0%</text>
</svg>
