<svg xmlns="http://www.w3.org/2000/svg" viewBox="0 0 760 400" width="760" height="400" font-family="ui-sans-serif, system-ui, -apple-system, Segoe UI, Roboto, Helvetica, Arial, sans-serif">
  <style>
    .title { fill: #1B1A17; font-size: 19px; font-weight: 700; letter-spacing: -0.2px; }
    .sub { fill: #7A776E; font-size: 12px; }
    .axis { fill: #7A776E; font-size: 12px; }
    .tick { fill: #7A776E; font-size: 11px; font-variant-numeric: tabular-nums; }
    .zero { fill: #7A776E; font-size: 10px; letter-spacing: 0.3px; }
    .endlbl { fill: #1B1A17; font-size: 13px; font-weight: 700; font-variant-numeric: tabular-nums; }
    .eyebrow { fill: #E0982E; font-size: 11px; font-weight: 700; letter-spacing: 1.5px; }
  </style>
  <rect x="0.5" y="0.5" width="759" height="399" rx="14" fill="#F7F6F3" stroke="#E7E4DC"/>
  <text x="62" y="28" class="eyebrow">AMBERTRACE · RLVR</text>
  <text x="62" y="49" class="title">Reward climbs as the policy learns to be certified</text>
  <line x1="62" y1="327.4" x2="736" y2="327.4" stroke="#E7E4DC" stroke-width="1"/><line x1="62" y1="255.9" x2="736" y2="255.9" stroke="#E7E4DC" stroke-width="1"/><line x1="62" y1="184.4" x2="736" y2="184.4" stroke="#E7E4DC" stroke-width="1"/><line x1="62" y1="112.9" x2="736" y2="112.9" stroke="#E7E4DC" stroke-width="1"/>
  <line x1="62" y1="255.9" x2="736" y2="255.9" stroke="#B9B5AA" stroke-width="1.5" stroke-dasharray="4 4"/><text x="736" y="249.9" text-anchor="end" class="zero">floor↔reward</text>
  <polygon points="62.0,226.9 79.3,231.8 96.6,263.1 113.8,253.9 131.1,248.4 148.4,248.4 165.7,249.4 183.0,231.2 200.3,236.2 217.5,263.1 234.8,193.7 252.1,223.0 269.4,223.0 286.7,221.8 303.9,212.5 321.2,207.4 338.5,155.2 355.8,194.0 373.1,153.4 390.4,194.0 407.6,155.9 424.9,184.6 442.2,194.0 459.5,155.9 476.8,181.2 494.1,179.3 511.3,155.9 528.6,108.5 545.9,170.5 563.2,155.9 580.5,155.9 597.7,155.9 615.0,206.9 632.3,206.9 649.6,206.9 666.9,206.9 684.2,91.5 701.4,206.9 718.7,206.9 736.0,206.9 736.0,206.9 718.7,206.9 701.4,206.9 684.2,227.3 666.9,206.9 649.6,206.9 632.3,206.9 615.0,206.9 597.7,222.1 580.5,222.1 563.2,222.1 545.9,239.1 528.6,246.0 511.3,222.1 494.1,264.6 476.8,292.8 459.5,222.1 442.2,233.8 424.9,273.4 407.6,222.1 390.4,233.8 373.1,250.8 355.8,233.8 338.5,247.4 321.2,292.0 303.9,271.2 286.7,272.6 269.4,275.0 252.1,275.0 234.8,318.7 217.5,263.1 200.3,275.9 183.0,296.6 165.7,309.0 148.4,293.9 131.1,293.9 113.8,320.5 96.6,263.1 79.3,296.4 62.0,293.8" fill="#E0982E22"/>
  <polyline points="62.0,260.3 79.3,264.1 96.6,263.1 113.8,287.2 131.1,271.1 148.4,271.1 165.7,279.2 183.0,263.9 200.3,256.1 217.5,263.1 234.8,256.2 252.1,249.0 269.4,249.0 286.7,247.2 303.9,241.8 321.2,249.7 338.5,201.3 355.8,213.9 373.1,202.1 390.4,213.9 407.6,189.0 424.9,229.0 442.2,213.9 459.5,189.0 476.8,237.0 494.1,222.0 511.3,189.0 528.6,177.3 545.9,204.8 563.2,189.0 580.5,189.0 597.7,189.0 615.0,206.9 632.3,206.9 649.6,206.9 666.9,206.9 684.2,159.4 701.4,206.9 718.7,206.9 736.0,206.9" fill="none" stroke="#E0982E" stroke-width="2.5" stroke-linejoin="round" stroke-linecap="round"/>
  <circle cx="62.0" cy="260.3" r="2.6" fill="#E0982E"/><circle cx="79.3" cy="264.1" r="2.6" fill="#E0982E"/><circle cx="96.6" cy="263.1" r="2.6" fill="#E0982E"/><circle cx="113.8" cy="287.2" r="2.6" fill="#E0982E"/><circle cx="131.1" cy="271.1" r="2.6" fill="#E0982E"/><circle cx="148.4" cy="271.1" r="2.6" fill="#E0982E"/><circle cx="165.7" cy="279.2" r="2.6" fill="#E0982E"/><circle cx="183.0" cy="263.9" r="2.6" fill="#E0982E"/><circle cx="200.3" cy="256.1" r="2.6" fill="#E0982E"/><circle cx="217.5" cy="263.1" r="2.6" fill="#E0982E"/><circle cx="234.8" cy="256.2" r="2.6" fill="#E0982E"/><circle cx="252.1" cy="249.0" r="2.6" fill="#E0982E"/><circle cx="269.4" cy="249.0" r="2.6" fill="#E0982E"/><circle cx="286.7" cy="247.2" r="2.6" fill="#E0982E"/><circle cx="303.9" cy="241.8" r="2.6" fill="#E0982E"/><circle cx="321.2" cy="249.7" r="2.6" fill="#E0982E"/><circle cx="338.5" cy="201.3" r="2.6" fill="#E0982E"/><circle cx="355.8" cy="213.9" r="2.6" fill="#E0982E"/><circle cx="373.1" cy="202.1" r="2.6" fill="#E0982E"/><circle cx="390.4" cy="213.9" r="2.6" fill="#E0982E"/><circle cx="407.6" cy="189.0" r="2.6" fill="#E0982E"/><circle cx="424.9" cy="229.0" r="2.6" fill="#E0982E"/><circle cx="442.2" cy="213.9" r="2.6" fill="#E0982E"/><circle cx="459.5" cy="189.0" r="2.6" fill="#E0982E"/><circle cx="476.8" cy="237.0" r="2.6" fill="#E0982E"/><circle cx="494.1" cy="222.0" r="2.6" fill="#E0982E"/><circle cx="511.3" cy="189.0" r="2.6" fill="#E0982E"/><circle cx="528.6" cy="177.3" r="2.6" fill="#E0982E"/><circle cx="545.9" cy="204.8" r="2.6" fill="#E0982E"/><circle cx="563.2" cy="189.0" r="2.6" fill="#E0982E"/><circle cx="580.5" cy="189.0" r="2.6" fill="#E0982E"/><circle cx="597.7" cy="189.0" r="2.6" fill="#E0982E"/><circle cx="615.0" cy="206.9" r="2.6" fill="#E0982E"/><circle cx="632.3" cy="206.9" r="2.6" fill="#E0982E"/><circle cx="649.6" cy="206.9" r="2.6" fill="#E0982E"/><circle cx="666.9" cy="206.9" r="2.6" fill="#E0982E"/><circle cx="684.2" cy="159.4" r="2.6" fill="#E0982E"/><circle cx="701.4" cy="206.9" r="2.6" fill="#E0982E"/><circle cx="718.7" cy="206.9" r="2.6" fill="#E0982E"/><circle cx="736.0" cy="206.9" r="2.6" fill="#E0982E"/>
  <circle cx="736.0" cy="206.9" r="5.5" fill="#E0982E" stroke="#F7F6F3" stroke-width="2"/><text x="728.0" y="196.9" text-anchor="end" class="endlbl">+0.69</text>
  <text x="52" y="331.4" text-anchor="end" class="tick">-1.0</text><text x="52" y="259.9" text-anchor="end" class="tick">+0.0</text><text x="52" y="188.4" text-anchor="end" class="tick">+1.0</text><text x="52" y="116.9" text-anchor="end" class="tick">+2.0</text>
  <text x="62" y="366" text-anchor="start" class="tick">1</text><text x="736" y="366" text-anchor="end" class="tick">40</text><text x="399.0" y="386" text-anchor="middle" class="axis">training step</text>
  <text x="62" y="386" class="sub" text-anchor="start" opacity="0"></text>
  <text x="736" y="28" text-anchor="end" class="sub">Qwen/Qwen2.5-1.5B-Instruct · GRPO · platform 146 · reward = AmberTrace proof certificate</text>
</svg>
