<svg xmlns="http://www.w3.org/2000/svg" viewBox="0 0 760 352" width="760" height="352" font-family="ui-sans-serif, system-ui, -apple-system, Segoe UI, Roboto, Helvetica, Arial, sans-serif">
  <style>
    .ti { fill: #1B1A17; font-size: 19px; font-weight: 700; letter-spacing: -0.2px; }
    .sub { fill: #7A776E; font-size: 12px; } .eb { fill: #E0982E; font-size: 11px; font-weight: 700; letter-spacing: 1.5px; }
    .md { fill: #1B1A17; font-size: 12.5px; font-weight: 600; } .lb { fill: #7A776E; font-size: 10.5px; font-variant-numeric: tabular-nums; }
    .col { fill: #7A776E; font-size: 11px; } .cell { font-size: 11px; font-weight: 700; font-variant-numeric: tabular-nums; }
  </style>
  <rect x="0.5" y="0.5" width="759" height="351" rx="14" fill="#F7F6F3" stroke="#E7E4DC"/>
  <text x="40" y="30" class="eb">AMBERTRACE · QUANTISATION</text>
  <text x="40" y="52" class="ti">Fail-open concentrates in ratio rules</text>
  <text x="40" y="72" class="sub">Qwen3.6-27B · fail-open rate on safety-critical decisions by rule structure across the precision ladder · darker = higher.</text>
  <text x="286.0" y="120.0" text-anchor="middle" class="col">8-bit</text><text x="358.0" y="120.0" text-anchor="middle" class="col">6-bit</text><text x="430.0" y="120.0" text-anchor="middle" class="col">5-bit</text><text x="502.0" y="120.0" text-anchor="middle" class="col">4-bit</text><text x="574.0" y="120.0" text-anchor="middle" class="col">3-bit</text><text x="646.0" y="120.0" text-anchor="middle" class="col">2-bit</text><text x="236" y="146.0" text-anchor="end" class="md">ratio</text><text x="236" y="158.0" text-anchor="end" class="lb">n=171</text><rect x="251.0" y="129.0" width="70" height="32" rx="3" fill="#E6B265" stroke="#E7E4DC"/><text x="286.0" y="149.0" text-anchor="middle" class="cell" fill="#FFFFFF">15.8%</text><rect x="323.0" y="129.0" width="70" height="32" rx="3" fill="#E6B265" stroke="#E7E4DC"/><text x="358.0" y="149.0" text-anchor="middle" class="cell" fill="#FFFFFF">15.8%</text><rect x="395.0" y="129.0" width="70" height="32" rx="3" fill="#E6B265" stroke="#E7E4DC"/><text x="430.0" y="149.0" text-anchor="middle" class="cell" fill="#FFFFFF">15.8%</text><rect x="467.0" y="129.0" width="70" height="32" rx="3" fill="#E09C36" stroke="#E7E4DC"/><text x="502.0" y="149.0" text-anchor="middle" class="cell" fill="#FFFFFF">21.1%</text><rect x="539.0" y="129.0" width="70" height="32" rx="3" fill="#E6B265" stroke="#E7E4DC"/><text x="574.0" y="149.0" text-anchor="middle" class="cell" fill="#FFFFFF">15.8%</text><rect x="611.0" y="129.0" width="70" height="32" rx="3" fill="#E6B265" stroke="#E7E4DC"/><text x="646.0" y="149.0" text-anchor="middle" class="cell" fill="#FFFFFF">15.8%</text><text x="236" y="180.0" text-anchor="end" class="md">precedence</text><text x="236" y="192.0" text-anchor="end" class="lb">n=180</text><rect x="251.0" y="163.0" width="70" height="32" rx="3" fill="#F1E0C6" stroke="#E7E4DC"/><text x="286.0" y="183.0" text-anchor="middle" class="cell" fill="#1B1A17">5.0%</text><rect x="323.0" y="163.0" width="70" height="32" rx="3" fill="#F1E0C6" stroke="#E7E4DC"/><text x="358.0" y="183.0" text-anchor="middle" class="cell" fill="#1B1A17">5.0%</text><rect x="395.0" y="163.0" width="70" height="32" rx="3" fill="#F1E0C6" stroke="#E7E4DC"/><text x="430.0" y="183.0" text-anchor="middle" class="cell" fill="#1B1A17">5.0%</text><rect x="467.0" y="163.0" width="70" height="32" rx="3" fill="#F1E0C6" stroke="#E7E4DC"/><text x="502.0" y="183.0" text-anchor="middle" class="cell" fill="#1B1A17">5.0%</text><rect x="539.0" y="163.0" width="70" height="32" rx="3" fill="#F1E0C6" stroke="#E7E4DC"/><text x="574.0" y="183.0" text-anchor="middle" class="cell" fill="#1B1A17">5.0%</text><rect x="611.0" y="163.0" width="70" height="32" rx="3" fill="#F7F6F3" stroke="#E7E4DC"/><text x="646.0" y="183.0" text-anchor="middle" class="cell" fill="#1B1A17">0.0%</text><text x="236" y="214.0" text-anchor="end" class="md">baseline</text><text x="236" y="226.0" text-anchor="end" class="lb">n=192</text><rect x="251.0" y="197.0" width="70" height="32" rx="3" fill="#F2E1C9" stroke="#E7E4DC"/><text x="286.0" y="217.0" text-anchor="middle" class="cell" fill="#1B1A17">4.7%</text><rect x="323.0" y="197.0" width="70" height="32" rx="3" fill="#F2E1C9" stroke="#E7E4DC"/><text x="358.0" y="217.0" text-anchor="middle" class="cell" fill="#1B1A17">4.7%</text><rect x="395.0" y="197.0" width="70" height="32" rx="3" fill="#F5EFE5" stroke="#E7E4DC"/><text x="430.0" y="217.0" text-anchor="middle" class="cell" fill="#1B1A17">1.6%</text><rect x="467.0" y="197.0" width="70" height="32" rx="3" fill="#F2E1C9" stroke="#E7E4DC"/><text x="502.0" y="217.0" text-anchor="middle" class="cell" fill="#1B1A17">4.7%</text><rect x="539.0" y="197.0" width="70" height="32" rx="3" fill="#F2E1C9" stroke="#E7E4DC"/><text x="574.0" y="217.0" text-anchor="middle" class="cell" fill="#1B1A17">4.7%</text><rect x="611.0" y="197.0" width="70" height="32" rx="3" fill="#EDCD9F" stroke="#E7E4DC"/><text x="646.0" y="217.0" text-anchor="middle" class="cell" fill="#1B1A17">9.4%</text><text x="236" y="248.0" text-anchor="end" class="md">multi-trigger</text><text x="236" y="260.0" text-anchor="end" class="lb">n=180</text><rect x="251.0" y="231.0" width="70" height="32" rx="3" fill="#F7F6F3" stroke="#E7E4DC"/><text x="286.0" y="251.0" text-anchor="middle" class="cell" fill="#1B1A17">0.0%</text><rect x="323.0" y="231.0" width="70" height="32" rx="3" fill="#F7F6F3" stroke="#E7E4DC"/><text x="358.0" y="251.0" text-anchor="middle" class="cell" fill="#1B1A17">0.0%</text><rect x="395.0" y="231.0" width="70" height="32" rx="3" fill="#F7F6F3" stroke="#E7E4DC"/><text x="430.0" y="251.0" text-anchor="middle" class="cell" fill="#1B1A17">0.0%</text><rect x="467.0" y="231.0" width="70" height="32" rx="3" fill="#F7F6F3" stroke="#E7E4DC"/><text x="502.0" y="251.0" text-anchor="middle" class="cell" fill="#1B1A17">0.0%</text><rect x="539.0" y="231.0" width="70" height="32" rx="3" fill="#F7F6F3" stroke="#E7E4DC"/><text x="574.0" y="251.0" text-anchor="middle" class="cell" fill="#1B1A17">0.0%</text><rect x="611.0" y="231.0" width="70" height="32" rx="3" fill="#F1E0C6" stroke="#E7E4DC"/><text x="646.0" y="251.0" text-anchor="middle" class="cell" fill="#1B1A17">5.0%</text><text x="236" y="282.0" text-anchor="end" class="md">negation</text><text x="236" y="294.0" text-anchor="end" class="lb">n=135</text><rect x="251.0" y="265.0" width="70" height="32" rx="3" fill="#F7F6F3" stroke="#E7E4DC"/><text x="286.0" y="285.0" text-anchor="middle" class="cell" fill="#1B1A17">0.0%</text><rect x="323.0" y="265.0" width="70" height="32" rx="3" fill="#F7F6F3" stroke="#E7E4DC"/><text x="358.0" y="285.0" text-anchor="middle" class="cell" fill="#1B1A17">0.0%</text><rect x="395.0" y="265.0" width="70" height="32" rx="3" fill="#F7F6F3" stroke="#E7E4DC"/><text x="430.0" y="285.0" text-anchor="middle" class="cell" fill="#1B1A17">0.0%</text><rect x="467.0" y="265.0" width="70" height="32" rx="3" fill="#F7F6F3" stroke="#E7E4DC"/><text x="502.0" y="285.0" text-anchor="middle" class="cell" fill="#1B1A17">0.0%</text><rect x="539.0" y="265.0" width="70" height="32" rx="3" fill="#F7F6F3" stroke="#E7E4DC"/><text x="574.0" y="285.0" text-anchor="middle" class="cell" fill="#1B1A17">0.0%</text><rect x="611.0" y="265.0" width="70" height="32" rx="3" fill="#F7F6F3" stroke="#E7E4DC"/><text x="646.0" y="285.0" text-anchor="middle" class="cell" fill="#1B1A17">0.0%</text>
</svg>
